<?xml version="1.0" encoding="iso-8859-1"?>
<!-- Generator: Adobe Illustrator 19.0.0, SVG Export Plug-In . SVG Version: 6.00 Build 0)  -->
<svg version="1.1" id="Layer_1" xmlns="http://www.w3.org/2000/svg" xmlns:xlink="http://www.w3.org/1999/xlink" x="0px" y="0px"
	 viewBox="0 0 512.001 512.001" style="enable-background:new 0 0 512.001 512.001;" xml:space="preserve">
<g>
	<g>
		<path d="M505,419.618c-7.476-7.476-18.672-8.953-27.636-4.446l-39.215-39.215l11.251-11.251c11.669-11.67,11.669-30.591,0-42.261
			c-11.259-11.259-29.258-11.649-40.992-1.191l-70.121-78.806l106.004-94.323c8.146-7.248,13.607-17.033,15.504-27.771
			l15.306-86.716c0.739-4.185-0.611-8.467-3.617-11.472s-7.287-4.355-11.472-3.617l-86.716,15.306
			c-10.738,1.895-20.522,7.358-27.769,15.504L256,149.97L166.475,49.359c-7.248-8.146-17.033-13.609-27.771-15.504L51.99,18.551
			c-0.754-0.133-1.512-0.198-2.264-0.199c-3.423,0-6.745,1.352-9.208,3.815c-3.005,3.005-4.355,7.288-3.617,11.472l15.306,86.716
			c1.895,10.738,7.358,20.522,15.504,27.771l106.004,94.323l-70.121,78.806c-11.735-10.459-29.734-10.064-40.992,1.191
			c-11.669,11.67-11.669,30.59,0,42.261l11.251,11.251l-39.214,39.214c-8.96-4.505-20.156-3.032-27.635,4.446
			c-9.336,9.335-9.337,24.472-0.001,33.808l33.222,33.222c9.335,9.334,24.472,9.337,33.808,0c7.479-7.479,8.952-18.676,4.447-27.636
			l39.214-39.214l11.252,11.252c11.671,11.67,30.589,11.67,42.261,0c11.257-11.257,11.651-29.258,1.191-40.992l83.604-74.391
			l83.604,74.391c-10.459,11.735-10.064,29.736,1.191,40.992c11.669,11.669,30.589,11.67,42.261,0l11.251-11.251l39.214,39.214
			c-4.505,8.959-3.034,20.156,4.445,27.635c9.335,9.334,24.472,9.337,33.808,0l33.223-33.222
			C514.335,444.091,514.336,428.954,505,419.618z M197.551,215.66L91.547,121.337c-2.107-1.875-3.537-4.437-4.028-7.213
			l-9.635-54.588l54.588,9.635c2.778,0.49,5.339,1.921,7.213,4.027l92.314,103.747L197.551,215.66z M364.958,364.709
			c-0.491-0.492-0.995-0.975-1.517-1.439l-80.469-71.603l28.524-25.381l70.121,78.806c0.466,0.523,0.948,1.026,1.44,1.517
			L364.958,364.709z"/>
	</g>
</g>
<g>
</g>
<g>
</g>
<g>
</g>
<g>
</g>
<g>
</g>
<g>
</g>
<g>
</g>
<g>
</g>
<g>
</g>
<g>
</g>
<g>
</g>
<g>
</g>
<g>
</g>
<g>
</g>
<g>
</g>
</svg>
